<?xml version="1.0" encoding="UTF-8"?>
<svg version="1.1" viewBox="0 0 512 512" xmlns="http://www.w3.org/2000/svg"><g transform="matrix(2.08 0 0 2.08 -277 -277)"><rect transform="rotate(-90)" x="-376" y="136" width="240" height="240" fill="#42b8ff"/><g transform="matrix(.394 0 0 .394 155 155)" fill="#fff"><g transform="rotate(225 193 251)"><path d="m125 112h200v40h-200z"/><path d="m325 112v200h-40v-200z"/></g><g transform="rotate(45 244 407)"><path d="m125 112h200v40h-200z"/><path d="m325 112v200h-40v-200z"/></g><rect transform="matrix(.706 -.708 .706 .708 0 0)" x="-179" y="341" width="358" height="41" stroke-width="1.22"/></g><rect transform="rotate(90)" x="136" y="-151" width="240" height="15" fill="#3dacee"/><rect x="136" y="361" width="240" height="15" fill="#3dacee"/></g></svg>
